<?xml version="1.0" standalone="no"?><!DOCTYPE svg PUBLIC "-//W3C//DTD SVG 1.1//EN" "http://www.w3.org/Graphics/SVG/1.1/DTD/svg11.dtd"><svg t="1572146248241" class="icon" viewBox="0 0 1024 1024" version="1.1" xmlns="http://www.w3.org/2000/svg" p-id="4512" xmlns:xlink="http://www.w3.org/1999/xlink" width="200" height="200"><defs><style type="text/css"></style></defs><path d="M426.665984 296.278016c0 46.292992 39.041024 85.334016 85.334016 85.334016s85.334016-39.041024 85.334016-85.334016S558.292992 210.944 512 210.944s-85.334016 39.041024-85.334016 85.334016zM426.665984 520.534016c0 46.292992 39.041024 85.334016 85.334016 85.334016s85.334016-39.041024 85.334016-85.334016S558.292992 435.2 512 435.2s-85.334016 39.041024-85.334016 85.334016zM426.665984 744.790016c0 46.292992 39.041024 85.334016 85.334016 85.334016s85.334016-39.041024 85.334016-85.334016C597.334016 698.497024 558.292992 659.456 512 659.456s-85.334016 39.041024-85.334016 85.334016z" fill="" p-id="4513"></path><path d="M256 327.68v387.753984c0 159.75424 114.432 289.943552 255.401984 290.816h1.792c140.82048-1.011712 254.574592-130.840576 254.806016-290.816V327.68c0-160.385024-114.817024-290.816-256-290.816S256 167.294976 256 327.68z m426.665984 0v387.753984c-0.139264 106.819584-76.208128 193.449984-170.24 193.878016-94.337024-0.19456-171.094016-87.148544-171.094016-193.878016V327.68c0-106.924032 76.544-193.878016 170.665984-193.878016s170.668032 86.953984 170.668032 193.878016z" fill="" p-id="4514"></path></svg>