<?xml version="1.0" standalone="no"?><!DOCTYPE svg PUBLIC "-//W3C//DTD SVG 1.1//EN" "http://www.w3.org/Graphics/SVG/1.1/DTD/svg11.dtd"><svg t="1572146313233" class="icon" viewBox="0 0 1024 1024" version="1.1" xmlns="http://www.w3.org/2000/svg" p-id="5922" xmlns:xlink="http://www.w3.org/1999/xlink" width="200" height="200"><defs><style type="text/css"></style></defs><path d="M725.333333 640a198.826667 198.826667 0 0 1 163.413334 85.333333 199.04 199.04 0 0 1-326.826667 0A198.826667 198.826667 0 0 1 725.333333 640m0-42.666667a242.133333 242.133333 0 0 0-213.333333 128 241.706667 241.706667 0 0 0 426.666667 0 242.133333 242.133333 0 0 0-213.333334-128z" p-id="5923"></path><path d="M469.333333 768H128V213.333333h725.333333v362.666667h42.666667V170.666667H85.333333v640h384v-42.666667z" p-id="5924"></path><path d="M725.333333 725.333333m-42.666666 0a42.666667 42.666667 0 1 0 85.333333 0 42.666667 42.666667 0 1 0-85.333333 0Z" p-id="5925"></path><path d="M298.666667 448h42.666666v213.333333h-42.666666zM469.333333 320h42.666667v256h-42.666667zM640 405.333333h42.666667v149.333334h-42.666667z" p-id="5926"></path></svg>